<svg width="16" height="16" viewBox="0 0 16 16" fill="none" xmlns="http://www.w3.org/2000/svg">
<path d="M15 5.875C15 10.25 8.51312 13.7913 8.23687 13.9375C8.16406 13.9767 8.08268 13.9972 8 13.9972C7.91732 13.9972 7.83594 13.9767 7.76312 13.9375C7.48688 13.7913 1 10.25 1 5.875C1.00116 4.84764 1.40979 3.86269 2.13624 3.13624C2.86269 2.40979 3.84764 2.00116 4.875 2C6.16563 2 7.29562 2.555 8 3.49312C8.70438 2.555 9.83438 2 11.125 2C12.1524 2.00116 13.1373 2.40979 13.8638 3.13624C14.5902 3.86269 14.9988 4.84764 15 5.875Z" fill="#F0E8C2"/>
</svg>
